<svg width="93" height="114" viewBox="0 0 93 114" fill="none" xmlns="http://www.w3.org/2000/svg">
<circle cx="5.13301" cy="5.13301" r="5.13301" fill="white" fill-opacity="0.1"/>
<circle cx="5.13301" cy="25.7084" r="5.13301" fill="white" fill-opacity="0.1"/>
<circle cx="5.13301" cy="46.2837" r="5.13301" fill="white" fill-opacity="0.1"/>
<circle cx="5.13301" cy="66.8591" r="5.13301" fill="white" fill-opacity="0.1"/>
<circle cx="5.13301" cy="87.4345" r="5.13301" fill="white" fill-opacity="0.1"/>
<circle cx="5.13301" cy="108.01" r="5.13301" fill="white" fill-opacity="0.1"/>
<circle cx="25.7084" cy="5.13301" r="5.13301" fill="white" fill-opacity="0.1"/>
<circle cx="25.7084" cy="25.7084" r="5.13301" fill="white" fill-opacity="0.1"/>
<circle cx="25.7084" cy="46.2837" r="5.13301" fill="white" fill-opacity="0.1"/>
<circle cx="25.7084" cy="66.8591" r="5.13301" fill="white" fill-opacity="0.1"/>
<circle cx="25.7084" cy="87.4345" r="5.13301" fill="white" fill-opacity="0.1"/>
<circle cx="25.7084" cy="108.01" r="5.13301" fill="white" fill-opacity="0.1"/>
<circle cx="46.2838" cy="5.13301" r="5.13301" fill="white" fill-opacity="0.1"/>
<circle cx="46.2838" cy="25.7084" r="5.13301" fill="white" fill-opacity="0.1"/>
<circle cx="46.2838" cy="46.2837" r="5.13301" fill="white" fill-opacity="0.1"/>
<circle cx="46.2838" cy="66.8591" r="5.13301" fill="white" fill-opacity="0.1"/>
<circle cx="46.2838" cy="87.4345" r="5.13301" fill="white" fill-opacity="0.1"/>
<circle cx="46.2838" cy="108.01" r="5.13301" fill="white" fill-opacity="0.1"/>
<circle cx="66.8591" cy="5.13301" r="5.13301" fill="white" fill-opacity="0.1"/>
<circle cx="66.8591" cy="25.7084" r="5.13301" fill="white" fill-opacity="0.1"/>
<circle cx="66.8591" cy="46.2837" r="5.13301" fill="white" fill-opacity="0.1"/>
<circle cx="66.8591" cy="66.8591" r="5.13301" fill="white" fill-opacity="0.1"/>
<circle cx="66.8591" cy="87.4345" r="5.13301" fill="white" fill-opacity="0.1"/>
<circle cx="66.8591" cy="108.01" r="5.13301" fill="white" fill-opacity="0.1"/>
<circle cx="87.4345" cy="5.13301" r="5.13301" fill="white" fill-opacity="0.1"/>
<circle cx="87.4345" cy="25.7084" r="5.13301" fill="white" fill-opacity="0.1"/>
<circle cx="87.4345" cy="46.2837" r="5.13301" fill="white" fill-opacity="0.1"/>
<circle cx="87.4345" cy="66.8591" r="5.13301" fill="white" fill-opacity="0.1"/>
<circle cx="87.4345" cy="87.4345" r="5.13301" fill="white" fill-opacity="0.1"/>
<circle cx="87.4345" cy="108.01" r="5.13301" fill="white" fill-opacity="0.1"/>
</svg>
